# xmcd
#
# Track frame offsets: 
#        150
#        3128
#        20603
#        38982
#        43494
#        58216
#        63897
#        79880
#        84247
#        101792
#        105766
#        125946
#        131260
#        147959
#        167658
#
# Disc length: 2407 seconds
#
# Revision: 0
# Processed by: cddbd v1.5.2PL0 Copyright (c) Steve Scherf et al.
# Submitted via: ExactAudioCopy v1.0b2
#
DISCID=c609650f
DTITLE=SMRYTRPS - Purple Gigant
DYEAR=2011
DGENRE=Hip-Hop
TTITLE0=偉大な詩人による慎重なイントロダクション
TTITLE1=ばんごはんのもんだい
TTITLE2=ムラサキ＝サンセット
TTITLE3=東京革命２
TTITLE4=私をフェスにつれてって(ルンルンプラプラランランラン)
TTITLE5=冬の左京区一乗寺
TTITLE6=マイスペース鉄道
TTITLE7=世田谷ホーチミン
TTITLE8=Ride On FAT
TTITLE9=晩餐の回答
TTITLE10=ウィークエンド・オン・ザ・プラネット(地球の週末)
TTITLE11=暮らしの情報バラエティー番組「たそがれロンリー」
TTITLE12=Hitomi
TTITLE13=ときどきミュージシャン
TTITLE14=渋谷区渋谷1-10-2周辺で巨人を仰ぎ捜すDJの小夜曲
EXTD=
EXTT0=
EXTT1=
EXTT2=
EXTT3=
EXTT4=
EXTT5=
EXTT6=
EXTT7=
EXTT8=
EXTT9=
EXTT10=
EXTT11=
EXTT12=
EXTT13=
EXTT14=
PLAYORDER=
